<svg id="Layer_1" data-name="Layer 1" xmlns="http://www.w3.org/2000/svg" viewBox="0 0 411.5 1047.02"><defs><style>.cls-1{fill:#fff;}.cls-1,.cls-2,.cls-3,.cls-4{stroke:#000;stroke-miterlimit:10;}.cls-1,.cls-2{stroke-width:20px;}.cls-2{fill:none;}.cls-3,.cls-4{stroke-width:6px;}.cls-4{fill:#4d4d4d;}</style></defs><title>main_logo</title><circle class="cls-1" cx="161.5" cy="161.5" r="151.5"/><line class="cls-2" x1="161" y1="313" x2="161" y2="768"/><path d="M240.36,945.66l42.46,101.9L350,1208.71l15.39,36.94c2.08,5,6.62,8.54,12.3,7,4.7-1.29,9.07-7.28,7-12.3l-42.46-101.9L275,977.29l-15.39-36.94c-2.08-5-6.62-8.54-12.3-7-4.7,1.29-9.07,7.28-7,12.3Z" transform="translate(-89 -206)"/><path d="M240.36,940.34l-42.46,101.9L130.75,1203.4l-15.39,36.94c-2.08,5,2.24,11,7,12.3,5.76,1.58,10.22-2,12.3-7l42.46-101.9L244.25,982.6l15.39-36.94c2.08-5-2.24-11-7-12.3-5.76-1.58-10.22,2-12.3,7Z" transform="translate(-89 -206)"/><path d="M240.36,618.34l-30.9,88.28L160.61,846.18l-11.26,32.16c-1.78,5.1,2,10.94,7,12.3,5.51,1.52,10.51-1.87,12.3-7l30.9-88.28,48.85-139.56,11.26-32.16c1.78-5.1-2-10.94-7-12.3-5.51-1.52-10.51,1.87-12.3,7Z" transform="translate(-89 -206)"/><path class="cls-2" d="M420.57,676.82" transform="translate(-89 -206)"/><path class="cls-2" d="M320,718" transform="translate(-89 -206)"/><path d="M240.36,623.66l19.87,56.78L291.93,771l7.3,20.87c2.73,7.81,13.82,10.28,18.28,2.39l64.92-114.93,9.2-16.29C398,651.83,380.7,641.73,374.37,653L309.45,767.88l-9.2,16.29,18.28,2.39-19.87-56.78-31.7-90.57-7.3-20.87c-1.78-5.1-6.84-8.49-12.3-7-4.94,1.36-8.78,7.18-7,12.3Z" transform="translate(-89 -206)"/><ellipse class="cls-3" cx="356.75" cy="414.25" rx="51.75" ry="66.75"/><ellipse class="cls-4" cx="346.75" cy="419.25" rx="51.75" ry="66.75"/><path d="M307,705.18l115.74-65.76L439,630.18c6.71-3.81.67-14.19-6.06-10.36L317.23,685.58,301,694.82c-6.71,3.81-.67,14.19,6.06,10.36Z" transform="translate(-89 -206)"/><ellipse class="cls-3" cx="236.75" cy="486.25" rx="51.75" ry="66.75"/><ellipse class="cls-4" cx="225.75" cy="490.25" rx="51.75" ry="66.75"/><ellipse class="cls-3" cx="219.75" cy="490.25" rx="38.81" ry="50.06"/><ellipse class="cls-4" cx="212.75" cy="494.25" rx="38.81" ry="50.06"/></svg>